<svg width="72" height="72" viewBox="0 0 72 72" fill="none" xmlns="http://www.w3.org/2000/svg">
<circle cx="36" cy="36" r="36" fill="white"/>
<g clip-path="url(#clip0)">
<path d="M39.2135 47.2668C39.4402 47.2668 39.6605 47.1782 39.8254 47.0134L41.5566 45.2831C42.2408 44.5979 42.7235 43.7345 42.9522 42.7864C43.0225 42.4934 42.9354 42.1849 42.7225 41.9716C42.5096 41.7587 42.2022 41.6715 41.9081 41.7418C40.6982 42.0349 39.4417 41.6864 38.561 40.8057L36.8233 39.068C35.9435 38.1882 35.594 36.9372 35.8871 35.7213C36.041 35.0821 36.3643 34.5019 36.8243 34.042L46.0489 24.8173C47.4336 23.4316 49.6872 23.4316 51.0734 24.8173L52.8116 26.5555C54.1963 27.9412 54.1963 30.1943 52.8116 31.58L45.3172 39.0744C45.0964 39.2952 45.0122 39.617 45.0949 39.9175C45.5756 41.6488 45.2721 43.4884 44.2642 44.9633C44.0305 45.3073 44.0736 45.7697 44.3677 46.0643C44.6622 46.3574 45.1246 46.401 45.4687 46.1658C45.8826 45.8821 46.2603 45.5702 46.5915 45.239L57.2449 34.5851C60.2877 31.5429 60.2877 26.5922 57.2449 23.5499L54.079 20.384C51.0368 17.3398 46.0846 17.3418 43.0433 20.384L35.3717 28.0561C35.0336 28.3937 35.0336 28.9418 35.3717 29.2794C35.7094 29.6175 36.2574 29.6175 36.595 29.2794L44.2672 21.6078C46.6346 19.2404 50.4882 19.2394 52.8556 21.6078L56.0216 24.7738C58.3891 27.1417 58.3891 30.9938 56.0216 33.3623L47.0054 42.3785C47.0905 41.5775 47.0519 40.7596 46.8836 39.9551L54.0349 32.8038C56.0949 30.7438 56.0949 27.3922 54.0349 25.3322L52.2972 23.5945C50.2362 21.5335 46.8846 21.535 44.8256 23.5945L35.5999 32.8192C34.9153 33.5043 34.4331 34.3678 34.2038 35.3158C33.7697 37.1228 34.291 38.9828 35.5999 40.2918L37.3376 42.0295C38.2674 42.9587 39.4739 43.4914 40.7427 43.5662C40.6219 43.7429 40.4843 43.9078 40.3323 44.0598L38.9753 45.4168C38.151 45.1143 37.3995 44.636 36.7802 44.0157L33.6137 40.8487C33.0469 40.2809 32.6048 39.6195 32.3008 38.8808C32.1181 38.4387 31.6126 38.2313 31.171 38.41C30.7289 38.5917 30.5185 39.0982 30.7002 39.5398C31.0913 40.4903 31.6602 41.3423 32.3899 42.0721L35.5569 45.239C36.5025 46.1851 37.6867 46.8757 38.9823 47.2356C39.059 47.2569 39.1367 47.2668 39.2135 47.2668V47.2668Z" fill="url(#paint0_linear)"/>
<path d="M28.5947 60.0003C30.5938 60.0003 32.5919 59.2398 34.1128 57.718L44.7667 47.0645C45.0979 46.7333 45.4098 46.3556 45.6935 45.9417C46.9906 44.0421 47.3802 41.6787 46.7633 39.4553C46.4029 38.1597 45.7128 36.975 44.7667 36.0299L41.5997 32.8629C40.6542 31.9164 39.4695 31.2262 38.1744 30.8663C37.8729 30.7812 37.5525 30.8673 37.3312 31.0886L35.6 32.8189C34.9158 33.5041 34.4331 34.3679 34.2044 35.3155C34.1341 35.6086 34.2212 35.9175 34.4341 36.1304C34.647 36.3423 34.9544 36.4294 35.2485 36.3601C36.4584 36.067 37.7149 36.4161 38.5952 37.2963L40.3334 39.034C41.2126 39.9137 41.5626 41.1653 41.2695 42.3812C41.1156 43.0198 40.7923 43.6 40.3324 44.06L31.1077 53.2846C29.723 54.6693 27.4694 54.6713 26.0832 53.2846L24.345 51.5469C22.9603 50.1612 22.9603 47.9077 24.345 46.522L30.3408 40.5256C30.6785 40.1875 30.6785 39.64 30.3408 39.3023C30.0027 38.9642 29.4552 38.9642 29.1175 39.3023L23.1217 45.2986C21.0617 47.3586 21.0617 50.7103 23.1217 52.7702L24.8599 54.5084C26.9204 56.5679 30.272 56.5679 32.3315 54.5084L41.5572 45.2833C42.2414 44.5981 42.7241 43.7347 42.9528 42.7866C43.387 40.9796 42.8656 39.1196 41.5572 37.8112L39.819 36.073C38.8897 35.1437 37.6832 34.611 36.4139 34.5363C36.5347 34.3595 36.6723 34.1947 36.8248 34.0427L38.1813 32.6862C39.0061 32.9882 39.7571 33.4664 40.3764 34.0867L43.5434 37.2537C44.2791 37.9889 44.8157 38.9107 45.0954 39.9187C45.5762 41.65 45.2727 43.4891 44.2647 44.9654C44.0429 45.2907 43.7993 45.5853 43.5434 45.8417L32.8895 56.4952C30.5235 58.8616 26.6699 58.8626 24.301 56.4952L21.135 53.3292C18.7676 50.9608 18.7676 47.1091 21.135 44.7407L29.526 36.3497C29.8636 36.0116 29.8636 35.464 29.526 35.1264C29.1883 34.7883 28.6403 34.7883 28.3026 35.1264L19.9117 43.5174C16.869 46.5596 16.869 51.5103 19.9117 54.553L23.0777 57.719C24.598 59.2398 26.5966 60.0003 28.5947 60.0003V60.0003Z" fill="url(#paint1_linear)"/>
<path d="M30.3592 41.2138C30.7651 41.2138 31.1166 40.9316 31.2037 40.5346L32.9568 32.5644L40.927 30.8114C41.324 30.7242 41.6067 30.3727 41.6067 29.9663C41.6067 29.5598 41.324 29.2083 40.927 29.1217L32.9568 27.3686L31.2037 19.3985C31.1166 19.0009 30.7651 18.7188 30.3592 18.7188C29.9527 18.7188 29.6012 19.0009 29.5141 19.3985L27.761 27.3686L19.7909 29.1217C19.3938 29.2083 19.1111 29.5598 19.1111 29.9663C19.1111 30.3727 19.3938 30.7242 19.7909 30.8114L27.761 32.5644L29.5141 40.5346C29.6012 40.9321 29.9527 41.2138 30.3592 41.2138V41.2138ZM36.7144 29.9663L32.0454 30.994C31.7161 31.0663 31.4592 31.3233 31.3864 31.653L30.3592 36.322L29.3314 31.653C29.2586 31.3233 29.0022 31.0663 28.6724 30.994L24.0034 29.9663L28.6724 28.939C29.0017 28.8662 29.2586 28.6098 29.3314 28.2801L30.3592 23.611L31.3864 28.2801C31.4592 28.6093 31.7157 28.8662 32.0454 28.939L36.7144 29.9663Z" fill="url(#paint2_linear)"/>
</g>
<defs>
<linearGradient id="paint0_linear" x1="45.081" y1="18.1016" x2="45.081" y2="47.2668" gradientUnits="userSpaceOnUse">
<stop stop-color="#00B6CE"/>
<stop offset="1" stop-color="#0071BC"/>
</linearGradient>
<linearGradient id="paint1_linear" x1="32.3397" y1="30.834" x2="32.3397" y2="60.0003" gradientUnits="userSpaceOnUse">
<stop stop-color="#00B6CE"/>
<stop offset="1" stop-color="#0071BC"/>
</linearGradient>
<linearGradient id="paint2_linear" x1="30.3589" y1="18.7188" x2="30.3589" y2="41.2138" gradientUnits="userSpaceOnUse">
<stop stop-color="#00B6CE"/>
<stop offset="1" stop-color="#0071BC"/>
</linearGradient>
<clipPath id="clip0">
<rect width="48" height="48" fill="white" transform="matrix(-1 0 0 1 60 12)"/>
</clipPath>
</defs>
</svg>
